<mxfile host="Electron" agent="Mozilla/5.0 (Windows NT 10.0; Win64; x64) AppleWebKit/537.36 (KHTML, like Gecko) draw.io/24.7.5 Chrome/126.0.6478.183 Electron/31.3.0 Safari/537.36" version="24.7.5">
  <diagram name="Page-1" id="0MMMJ9cfgxsZ8R0mkIlo">
    <mxGraphModel dx="1687" dy="1040" grid="1" gridSize="10" guides="1" tooltips="1" connect="1" arrows="1" fold="1" page="1" pageScale="1" pageWidth="827" pageHeight="1169" math="0" shadow="0">
      <root>
        <mxCell id="0" />
        <mxCell id="1" parent="0" />
        <mxCell id="Np-2wT9SPwXAzYNQxNWR-1" value="" style="swimlane;startSize=0;" vertex="1" parent="1">
          <mxGeometry x="230" y="140" width="240" height="640" as="geometry" />
        </mxCell>
        <mxCell id="Np-2wT9SPwXAzYNQxNWR-3" value="Blogging Platform API" style="text;html=1;align=center;verticalAlign=middle;whiteSpace=wrap;rounded=0;" vertex="1" parent="Np-2wT9SPwXAzYNQxNWR-1">
          <mxGeometry x="10" y="20" width="110" height="30" as="geometry" />
        </mxCell>
        <mxCell id="Np-2wT9SPwXAzYNQxNWR-5" value="Update a post" style="ellipse;whiteSpace=wrap;html=1;" vertex="1" parent="Np-2wT9SPwXAzYNQxNWR-1">
          <mxGeometry x="50" y="409.5" width="140" height="70" as="geometry" />
        </mxCell>
        <mxCell id="Np-2wT9SPwXAzYNQxNWR-6" value="Delete a post" style="ellipse;whiteSpace=wrap;html=1;" vertex="1" parent="Np-2wT9SPwXAzYNQxNWR-1">
          <mxGeometry x="50" y="510" width="140" height="70" as="geometry" />
        </mxCell>
        <mxCell id="Np-2wT9SPwXAzYNQxNWR-7" value="Get a post" style="ellipse;whiteSpace=wrap;html=1;" vertex="1" parent="Np-2wT9SPwXAzYNQxNWR-1">
          <mxGeometry x="50" y="310" width="140" height="70" as="geometry" />
        </mxCell>
        <mxCell id="Np-2wT9SPwXAzYNQxNWR-9" value="Get all posts" style="ellipse;whiteSpace=wrap;html=1;" vertex="1" parent="Np-2wT9SPwXAzYNQxNWR-1">
          <mxGeometry x="50" y="210" width="140" height="70" as="geometry" />
        </mxCell>
        <mxCell id="Np-2wT9SPwXAzYNQxNWR-4" value="Create a post" style="ellipse;whiteSpace=wrap;html=1;" vertex="1" parent="Np-2wT9SPwXAzYNQxNWR-1">
          <mxGeometry x="50" y="110" width="140" height="70" as="geometry" />
        </mxCell>
        <mxCell id="Np-2wT9SPwXAzYNQxNWR-2" value="Anonymous&lt;br&gt;User" style="shape=umlActor;html=1;verticalLabelPosition=bottom;verticalAlign=top;align=center;" vertex="1" parent="1">
          <mxGeometry x="150" y="310" width="30" height="60" as="geometry" />
        </mxCell>
      </root>
    </mxGraphModel>
  </diagram>
</mxfile>
